<?xml version="1.0" encoding="UTF-8"?><svg id="Layer_1" xmlns="http://www.w3.org/2000/svg" viewBox="0 0 289.78 317.5"><defs><style>.cls-1{fill:#43b064;}</style></defs><path class="cls-1" d="m137.68,1.5c-1.4.8-3.5,2.7-4.5,4.2-1.8,2.7-1.9,6.9-2.4,110.8l-.5,108-2.8,5.8c-3.2,6.5-10,12.2-18,15.2-12,4.5-28.6-2.6-34.9-14.9-2.7-5.2-3.5-16-1.8-22.1,3-10.9,12.6-18.7,25.2-20.6,4.2-.6,9-2,10.8-3,5.5-3.4,6-6.1,6-33.4,0-22.5-.2-24.9-2-28.4-1.5-3-3-4.3-6.5-5.7-4.1-1.5-5.7-1.6-15.4-.5-14.1,1.5-23.1,4.1-34.9,10s-19.4,11.6-28.3,20.8C7.28,168.8-2.82,198.9.68,228c1.6,13.5,4.4,23,10.1,34.5,12.8,25.9,35.2,44.1,65,52.8,6.4,1.8,10,2.2,25,2.2,19-.1,23.5-.8,37.7-6.5,16.3-6.6,30.2-16.9,41.5-30.9,8.2-10.2,12.8-18.9,17.2-32.4,4.8-14.6,5.6-24,5.6-69.2v-39.5l8.8,4.3c18.1,9.1,40.3,14.5,60.4,14.8,6.2.1,8.4-.3,11.2-2,5.9-3.7,6.6-7,6.6-32.9,0-12.5-.5-24.4-1-26.4-.6-2-2.5-5-4.4-6.6-3-2.6-4.3-3-12.3-3.6-27.4-2-48.8-15.8-61.6-39.6-3.9-7.2-7.7-20.9-7.7-27.9-.1-7.8-1.6-12.3-5.4-15.9l-3.6-3.2h-26.7c-21.2.1-27.3.4-29.4,1.5Zm38.6,31.2c1,7.1,5.9,20.5,10.4,28.8,9.8,18.1,24.9,32.9,42.7,41.9,7.8,3.9,24,9.6,27.2,9.6,4.7,0,5.2.8,5.2,8.4,0,4-.2,7.5-.5,7.8s-4-.1-8.2-.9c-16.9-3.2-39.7-14.1-52.7-25.2-8.9-7.5-14.5-8-21.4-1.6l-3.7,3.3-.6,61.9c-.6,69.4-.3,66.5-8.3,82.8-12.4,25.2-37.2,40.5-65.7,40.5s-53.8-16-66.5-43.5c-6.3-13.6-8.1-30-4.9-44.9,1.9-9,9.1-23.6,15.2-30.8,9.1-10.8,22-19.6,34.2-23.2,8.8-2.6,8.7-2.7,8.1,6.1l-.5,7.6-8.5,3.5c-7.4,3.1-9.6,4.6-16.6,11.6-12.4,12.4-17.3,23.8-17.4,40.6,0,10.3,1.9,18.1,6.6,27.1,5.8,10.9,14,19.1,24.9,24.7,12.6,6.4,32.2,7.2,46.3,2,13.4-5,27.1-18.1,32.6-31.1,4.5-10.9,4.6-13.1,4.6-115.2V28h16.8l.7,4.7Z"/></svg>